PathFileType	4	(X/Y/Z)	Patient4_TMGait_0pt6_01_right_10.trc.trc
DataRate	CameraRate	NumFrames	NumMarkers	Units	OrigDataRate	OrigDataStartFrame	OrigNumFrames
82.352941176471	82.352941176471	7	33	mm	82.352941176471	106	       141
Frame#	Time	Sacral			L.Shoulder			Chest			R.Shoulder			Neck			R.ASIS			L.ASIS			R.Thigh.Superior			R.Thigh.Lateral			R.Thigh.Inferior			R.Patella			L.Thigh.Superior			L.Thigh.Lateral			L.Thigh.Inferior			L.Patella			L.Shank.Superior			L.Shank.Lateral			L.Shank.Inferior			R.Shank.Superior			R.Shank.Lateral			R.Shank.Inferior			R.Heel			R.Midfoot.Superior			R.Midfoot.Lateral			R.Toe			L.Heel			L.Midfoot.Lateral			L.Midfoot.Superior			L.Toe			L.Elbow			L.Wrist			R.Elbow			R.Wrist			
		X1	Y1	Z1	X2	Y2	Z2	X3	Y3	Z3	X4	Y4	Z4	X5	Y5	Z5	X6	Y6	Z6	X7	Y7	Z7	X8	Y8	Z8	X9	Y9	Z9	X10	Y10	Z10	X11	Y11	Z11	X12	Y12	Z12	X13	Y13	Z13	X14	Y14	Z14	X15	Y15	Z15	X16	Y16	Z16	X17	Y17	Z17	X18	Y18	Z18	X19	Y19	Z19	X20	Y20	Z20	X21	Y21	Z21	X22	Y22	Z22	X23	Y23	Z23	X24	Y24	Z24	X25	Y25	Z25	X26	Y26	Z26	X27	Y27	Z27	X28	Y28	Z28	X29	Y29	Z29	X30	Y30	Z30	X31	Y31	Z31	X32	Y32	Z32	X33	Y33	Z33	

106	12.835000000000	648.946186219128	1004.246462497822	424.701943007146	814.305092668507	1430.098552907044	233.412559225110	908.169412941047	1373.418771093314	404.157194319764	811.239637151265	1449.621989379734	568.381706585237	785.914336394617	1498.192882255675	382.281341376957	872.136111038214	948.437400417816	548.242419986014	873.309387539502	969.617132441485	273.116767847649	965.840512477903	789.375418490997	530.769254732173	931.053084321666	667.751180052741	608.981999443275	1029.643329215013	635.273875060857	537.437179477213	1061.029047504826	528.709667949853	564.157439329832	897.217430755379	749.187324158789	306.211037953890	794.918584406464	640.451165866623	247.990274111065	870.412058287784	557.408176196815	310.770823640598	863.201373682590	490.337105485351	320.961269053623	837.758713298627	419.404669735401	317.522437811084	743.941352734577	302.337989429185	281.271764386736	806.026277844259	195.712101956291	352.540367245384	1001.858067844821	442.765119271979	566.986637792730	891.800479733780	374.734393237822	622.053701928294	906.377258641832	266.133466385058	573.597427043885	729.446207334427	146.484789394124	535.366222197724	904.386655605267	151.664439224166	593.460839281265	797.209872338360	120.267592217673	619.761503454805	996.993485443634	69.860971447069	639.483631674510	684.952932774114	37.847113488313	413.349537157062	755.521621689108	34.012706008639	328.736424396907	838.863907310321	98.077804066396	348.597094536193	966.351374494964	49.342157631773	319.427229652653	891.799948532470	1087.470679690896	111.646274665795	1100.933477970043	929.690331672292	109.671847142399	723.158396579873	1116.156804321116	694.168557383439	766.197028435921	858.484063630539	712.813220579473	
107	12.847142857143	648.267190726144	1004.126264610770	424.596924003446	814.770254744990	1430.079562302905	234.007435992067	907.892080356546	1373.224834025620	405.071060406158	810.355859669183	1449.215752897214	569.031312822973	785.738536003532	1498.060765144415	382.989098985715	871.194888900511	948.449625168129	548.577872080992	872.851096020373	969.409531667376	273.473106899973	965.334047978424	790.302920931322	530.095025285525	931.669263693595	668.373080248878	608.505181492695	1029.854998148986	636.473876664958	536.359199774350	1062.790519440104	531.517362884842	562.764344253251	895.033808524605	748.201144122236	306.112637398508	791.312166904737	640.388651199634	248.257791320107	865.846999687152	556.635914748103	310.992967301992	857.971706982755	489.741105938027	321.336138026748	832.253864245964	419.085169635133	317.835812462984	737.962055019581	302.465837268104	281.282261254097	799.326742309722	195.526684401364	352.739772848184	1007.038949105021	444.288525043814	566.649329167305	901.132858068270	371.823867735768	623.942525131174	919.665034486084	263.652850076488	575.609600481772	747.513894351054	136.978764907404	540.770223747407	923.107052003835	148.384318836732	595.737067027358	817.737359910371	113.217523617288	624.072109229621	1019.446977699574	69.987948336750	640.065598001771	677.658509252695	37.880385833845	413.318521689697	748.218755724110	34.031856753018	328.765211400559	831.625257693822	97.979476267534	348.700131511607	959.073768532971	49.135364686684	319.463836524383	895.133390852994	1088.910045183604	111.074727813528	1111.378507986451	940.752495165035	110.205207664665	714.235224556617	1118.288739320802	693.499971152226	742.345103771781	858.710023016228	714.424142653205	
108	12.859285714286	647.607574956738	1004.017096567408	424.610588095409	815.289798774744	1430.013149941894	234.719372564726	907.701075522189	1372.960577656872	406.070907223302	809.637597355730	1448.796204810307	569.784420705323	785.663745226591	1497.879139866441	383.811280634288	870.267454735437	948.402721740690	549.049195379381	872.334274456189	969.126039696490	273.973350803093	964.586740299939	790.871829153316	529.574966844321	931.753957652477	668.641099253128	608.088274191399	1029.481869474335	637.164384111815	535.389589383510	1063.791364654905	533.936938871306	561.373558368025	892.822213272828	747.179192505586	306.121512851885	787.687963189877	640.312623525302	248.644414891393	861.256196181587	555.854302492036	311.333062925009	852.739187004120	489.141841469791	321.817616109675	826.746547404389	418.774030621789	318.250409307467	732.001563448718	302.601258344101	281.351809252148	792.634747252603	195.346793562295	353.000034669549	1011.603701011805	445.586069773117	566.225685541170	910.179005260317	368.764367284664	625.705040666935	932.746143914975	261.265125327111	577.352316624905	765.868238549618	127.717482830321	545.802184190799	941.838474068409	145.355955235661	597.557081395653	838.486490587181	106.399344730126	627.901965225776	1041.782385960553	70.506098914224	639.946456100426	670.368517444401	37.912707563347	413.287621177856	740.912832627263	34.056867077869	328.801714603594	824.383917836770	97.883313272617	348.818464855408	951.786039217835	48.936350970554	319.494672773763	898.270796112697	1090.285422877543	110.636246053696	1121.101057106692	952.058316795485	110.971374149495	705.763174033562	1120.654928855896	693.048929356413	719.956014142369	860.117312224762	715.581881982952	
109	12.871428571429	646.976491692403	1003.904425111325	424.728987521272	815.864388097792	1429.901955061229	235.543407065262	907.593180342059	1372.625013660907	407.152406227527	809.078394175319	1448.367373133719	570.632023453372	785.683266375069	1497.645509094116	384.732713665936	869.364348989583	948.298104982499	549.661040170546	871.809155825363	968.773129175071	274.604965300823	963.615693128363	791.065816729067	529.250670224140	931.311645502615	668.548232092129	607.775655102716	1028.527199128110	637.332912420197	534.564560164176	1064.042402134922	535.951392114762	560.034138177032	890.584630771460	746.127817283862	306.300950912712	784.088601620008	640.220933086498	249.145327504143	856.666111035604	555.063271977456	311.812772740542	847.531019912864	488.536958384703	322.411912538819	821.252245527809	418.465965051176	318.769849550854	726.075983172037	302.742414502434	281.477790381044	785.955357298142	195.169699023949	353.322627873795	1015.523644064397	446.647894208600	565.754363653600	918.847480524551	365.581727913147	627.303602417598	945.520524820475	259.002421517265	578.795684371160	784.399214131402	118.756527283359	550.316088777098	960.434607438171	142.642893540195	598.896135751829	859.298649962442	99.866414792909	631.138243202462	1063.821241696525	71.479726736218	639.159372694336	663.078603779638	37.945714416289	413.260465479223	733.601923177489	34.088062544671	328.846224309635	817.139269984610	97.787585706037	348.953144328752	944.486261018810	48.746685724015	319.520989068921	901.222054675182	1091.595662527162	110.325927520331	1130.068577936727	963.537238065036	111.965002456090	697.738426270783	1123.237461807331	692.828749802866	699.165722982545	862.496755255715	716.376288494333	
110	12.883571428571	646.388420295927	1003.768473090255	424.942578347454	816.493642508353	1429.743074621896	236.473575325360	907.562602676456	1372.216043611542	408.312370667758	808.665138244958	1447.930386572060	571.564542875758	785.786695526799	1497.354984333844	385.739267308466	868.499328777989	948.132185125805	550.420738555633	871.321313730856	968.351863396979	275.362749914131	962.441200143035	790.868860826227	529.160149218124	930.361263333731	668.090980456733	607.607635040691	1027.007839102185	636.976023278932	533.908971115007	1063.567623823089	537.543990888954	558.787592319137	888.331702490951	745.052721645990	306.704640609372	780.560135362190	640.110545467384	249.753035022056	852.108489616907	554.262590666680	312.447229089333	842.376274085437	487.921937692427	323.120842551182	815.790314970180	418.154038105089	319.391525636345	720.201399731733	302.887829170129	281.655699031710	779.293746988169	194.991788934449	353.703627030968	1018.772831611167	447.457811587576	565.272167840516	927.025258267755	362.294217512764	628.692445546323	957.861461582354	256.880916113522	579.911414463589	802.941006400697	110.134479777225	554.162557604701	978.702222820643	140.291502461861	599.741775427544	879.957808885525	93.660345501951	633.679618388920	1085.340985155850	72.954146504073	637.775107720379	655.785158245902	37.982349359997	413.240328971953	726.284687930709	34.125975888136	328.897815480721	809.891505635511	97.690543034338	349.103576249858	937.173535528227	48.566852443614	319.544640073532	903.993565372056	1092.834226007371	110.139163597532	1138.255450817855	975.102421609323	113.176030769103	690.158156694913	1126.003044140528	692.834828777187	680.057695090390	865.624844334529	716.903340927738	
111	12.895714285714	645.863318253457	1003.585663056159	425.247938296194	817.174214782944	1429.527885074858	237.503446098515	907.600632236397	1371.731172246245	409.548840358345	808.378265040771	1447.482933990442	572.573024395182	785.959777143543	1497.000555558130	386.818379522372	867.689745303442	947.896672156505	551.337634003798	870.908870592279	967.858242940463	276.249630324248	961.087649877509	790.268126448260	529.334515799734	928.937946785130	667.269817343460	607.615739737852	1024.958793100236	636.101623768549	533.435443246703	1062.404702157932	538.696982263443	557.665488089650	886.085086898366	743.957217363783	307.369072099445	777.148776927169	639.977677107279	250.458153037144	847.618767511538	553.451410836509	313.242648757309	837.305139742032	487.290207492627	323.941215961141	810.384209993522	417.829355333646	320.106684506291	714.393358644816	303.036347653550	281.879726389361	772.655395027747	194.808277387578	354.134043038736	1021.329522407614	447.992028203294	564.809363572409	934.581377777868	358.911615960042	629.819574037081	969.613436137025	254.897884077909	580.672495451041	821.262290941271	101.880271854808	557.197741114258	996.398299367456	138.321187566968	600.090711267114	900.184141157949	87.810116534275	635.442219650723	1106.069877312504	74.935156111761	635.890728041081	648.485759148987	38.026146952338	413.229407032978	718.960605113392	34.171045913914	328.954228309295	802.641337085115	97.590811266225	349.267431808355	929.848053359379	48.396143149984	319.567864998099	906.589887622833	1093.989312234195	110.072304546286	1145.645399286352	986.651322603918	114.589789097261	683.023360857406	1128.901907731025	693.048030755089	662.669491411374	869.274003044127	717.259412064629	
112	12.907857142857	645.426006613000	1003.330104616871	425.649046259438	817.898210088857	1429.242667905415	238.626844515224	907.695770830527	1371.168330736562	410.861079967724	808.192670878289	1447.019131406213	573.650287621330	786.184438579917	1496.573242686813	387.960265720751	866.956588047570	947.579292032787	552.421991714917	870.601249653442	967.284372813590	277.275940918295	959.584860305387	789.257092876880	529.795393673925	927.092475767430	666.088938386999	607.817660918155	1022.436013929630	634.730224537551	533.145058555459	1060.603599835848	539.390721798993	556.687225318658	883.878343879747	742.840900562628	308.308463930419	773.898091477044	639.817789026323	251.250447402870	843.234540976413	552.627315434942	314.195693262606	832.348801725235	486.633189992112	324.865106863699	805.061647813172	417.480755033867	320.901646351798	708.666992211620	303.186739050483	282.143475946421	766.046409815364	194.612823750989	354.601068414552	1023.177540332962	448.218466099424	564.384658499651	941.373413984969	355.434693595473	630.630218793046	980.594175258375	253.029088064573	581.053587211725	839.063841122055	94.020159439005	559.294716861340	1013.234236682159	136.713665565377	599.946247313681	919.635068618403	82.329389787316	636.365160738637	1125.689301373232	77.366391092967	633.616423181509	641.179514561717	38.079915935725	413.228225460879	711.630132465238	34.223085386447	329.012055142876	795.389639078137	97.487552284702	349.440969830508	922.511194274510	48.232473897112	319.593004074483	909.015032040894	1095.044746351822	110.123202332148	1152.233680086950	998.068085934388	116.187775928153	676.341552292691	1131.867992879135	693.439853588207	647.002920666762	873.221185709378	717.535735427436	
